<svg xmlns="http://www.w3.org/2000/svg" viewBox="0 0 64 64">
  <circle cx="32" cy="32" r="32" fill="#000000"/>
  <!-- Outer glow layer for left gripper -->
  <path d="M12 20 L24 20 L28 32 L24 44 L12 44" fill="none" stroke="#5ee7ff" stroke-width="7" stroke-linecap="round" stroke-linejoin="round" opacity="0.4"/>
  <!-- Main left gripper arm - bright cyan -->
  <path d="M12 20 L24 20 L28 32 L24 44 L12 44" fill="none" stroke="#5ee7ff" stroke-width="5" stroke-linecap="round" stroke-linejoin="round" opacity="1"/>
  <!-- Inner glow for left gripper -->
  <path d="M12 20 L24 20 L28 32 L24 44 L12 44" fill="none" stroke="#a5f3fc" stroke-width="2" stroke-linecap="round" stroke-linejoin="round" opacity="0.8"/>
  <!-- Outer glow layer for right gripper -->
  <path d="M52 20 L40 20 L36 32 L40 44 L52 44" fill="none" stroke="#5ee7ff" stroke-width="7" stroke-linecap="round" stroke-linejoin="round" opacity="0.4"/>
  <!-- Main right gripper arm - bright cyan -->
  <path d="M52 20 L40 20 L36 32 L40 44 L52 44" fill="none" stroke="#5ee7ff" stroke-width="5" stroke-linecap="round" stroke-linejoin="round" opacity="1"/>
  <!-- Inner glow for right gripper -->
  <path d="M52 20 L40 20 L36 32 L40 44 L52 44" fill="none" stroke="#a5f3fc" stroke-width="2" stroke-linecap="round" stroke-linejoin="round" opacity="0.8"/>
  <!-- Center connector with multiple glow layers -->
  <circle cx="32" cy="32" r="8" fill="#000000" stroke="#5ee7ff" stroke-width="1" opacity="0.3"/>
  <circle cx="32" cy="32" r="7" fill="#000000" stroke="#5ee7ff" stroke-width="2" opacity="0.5"/>
  <circle cx="32" cy="32" r="6" fill="#000000" stroke="#5ee7ff" stroke-width="2"/>
  <circle cx="32" cy="32" r="4.5" fill="#5ee7ff" opacity="0.9"/>
  <circle cx="32" cy="32" r="3" fill="#a5f3fc" opacity="0.8"/>
  <circle cx="32" cy="32" r="1.5" fill="#ffffff"/>
</svg>
